<svg xmlns="http://www.w3.org/2000/svg" xmlns:xlink="http://www.w3.org/1999/xlink" id="Layer_1" x="0px" y="0px" viewBox="0 0 274 130.1" style="enable-background:new 0 0 274 130.1;" xml:space="preserve"><style type="text/css">	.st0{fill:#4E4F4F;}	.st1{fill:#010101;}	.st2{fill:#EB2127;}</style><g>	<path class="st0" d="M35.5,100.7c-0.2,1.9-1,3.3-2.3,4.5c-1.3,1.1-3,1.7-5,1.7c-2.4,0-4.3-0.7-5.8-2.1c-1.4-1.4-2.1-3.3-2.1-5.7  s0.7-4.3,2.1-5.7c1.4-1.4,3.4-2.1,5.8-2.1c2,0,3.6,0.5,4.9,1.6c1.3,1.1,2,2.4,2.2,4.2h-2.1c-0.2-1.2-0.7-2.1-1.6-2.8  c-0.9-0.7-2-1-3.4-1c-1.8,0-3.2,0.5-4.2,1.6c-1,1-1.5,2.5-1.5,4.3c0,1.8,0.5,3.3,1.5,4.3c1,1,2.4,1.6,4.3,1.6  c1.4,0,2.6-0.4,3.5-1.1c0.9-0.8,1.5-1.8,1.7-3H35.5z"></path>	<path class="st0" d="M37,100.9c0-1.8,0.5-3.2,1.6-4.3c1.1-1.1,2.5-1.6,4.4-1.6c1.8,0,3.3,0.5,4.3,1.6c1.1,1.1,1.6,2.5,1.6,4.3  c0,1.8-0.5,3.2-1.6,4.3c-1.1,1.1-2.5,1.6-4.3,1.6c-1.8,0-3.3-0.5-4.4-1.6C37.5,104.1,37,102.7,37,100.9z M39,100.9  c0,1.2,0.3,2.2,1.1,3c0.7,0.7,1.7,1.1,2.9,1.1c1.2,0,2.2-0.4,2.9-1.1c0.7-0.7,1.1-1.7,1.1-3c0-1.2-0.4-2.2-1.1-2.9  c-0.7-0.7-1.7-1.1-2.9-1.1c-1.2,0-2.2,0.4-2.9,1.1C39.3,98.7,39,99.7,39,100.9z"></path>	<path class="st0" d="M51.1,106.4v-11H53v1.9c0.6-0.7,1.2-1.3,2-1.6c0.7-0.4,1.5-0.5,2.4-0.5c0.7,0,1.3,0.1,1.9,0.3  c0.5,0.2,1,0.5,1.3,0.9c0.3,0.4,0.5,0.8,0.6,1.3c0.1,0.5,0.2,1.3,0.2,2.4v6.3h-1.9V100c0-1.2-0.2-2-0.6-2.5c-0.4-0.5-1-0.7-2-0.7  c-1.2,0-2.1,0.4-2.9,1.1c-0.7,0.7-1.1,1.7-1.1,2.9v5.6H51.1z"></path>	<path class="st0" d="M67.3,103.7c0,0.5,0.1,0.8,0.3,1c0.2,0.2,0.5,0.3,1,0.3c0.2,0,0.4,0,0.6,0c0.2,0,0.5-0.1,0.7-0.2v1.8  c-0.5,0.1-0.8,0.1-1.1,0.2c-0.3,0-0.5,0-0.7,0c-0.9,0-1.6-0.2-2.1-0.6c-0.5-0.4-0.7-1.1-0.7-1.9v-7.1h-1.9v-1.7h1.9v-2.8h2v2.8h2.6  v1.7h-2.6V103.7z"></path>	<path class="st0" d="M71.7,106.4v-11h1.9v1.9c0.5-0.7,1.1-1.3,1.7-1.7s1.4-0.6,2.2-0.6c0.2,0,0.4,0,0.5,0.1c0.1,0,0.3,0.1,0.4,0.1  v2.1c-0.3-0.1-0.5-0.1-0.7-0.2c-0.2,0-0.4-0.1-0.6-0.1c-1,0-1.8,0.4-2.4,1.1c-0.6,0.7-1,1.7-1,2.8v5.4H71.7z"></path>	<path class="st0" d="M87.8,100.8c-0.3,0.2-0.7,0.3-1.2,0.4c-0.5,0.1-1.2,0.2-2.1,0.3c-1.4,0.2-2.3,0.4-2.6,0.6  c-0.4,0.2-0.6,0.6-0.6,1.2c0,0.5,0.2,0.9,0.6,1.3c0.4,0.3,1,0.5,1.7,0.5c1.2,0,2.2-0.2,2.9-0.8c0.8-0.5,1.2-1.1,1.2-1.8V100.8z   M87.9,104.7c-0.5,0.6-1.1,1.1-1.9,1.5c-0.8,0.3-1.6,0.5-2.6,0.5c-1.3,0-2.3-0.3-3.1-0.9c-0.7-0.6-1.1-1.4-1.1-2.4  c0-0.6,0.1-1.1,0.4-1.5c0.3-0.4,0.6-0.8,1.2-1.2c0.3-0.2,0.6-0.3,1.1-0.4c0.5-0.1,1.3-0.2,2.3-0.3c0.2,0,0.5-0.1,0.8-0.1  c1.8-0.2,2.7-0.7,2.7-1.4c0-0.6-0.2-1-0.7-1.3c-0.4-0.3-1.1-0.4-2.1-0.4c-1.1,0-1.9,0.2-2.4,0.5c-0.5,0.3-0.8,0.9-0.8,1.7l-2,0  c0.1-1.3,0.5-2.3,1.4-2.9c0.9-0.7,2.1-1,3.8-1c1.8,0,3,0.3,3.8,0.8c0.7,0.6,1.1,1.5,1.1,2.8v4.4c0,0.6,0.1,1,0.2,1.3  c0.1,0.2,0.4,0.3,0.8,0.3c0.1,0,0.2,0,0.3,0c0.1,0,0.2,0,0.3-0.1v1.6c-0.3,0-0.5,0.1-0.8,0.1c-0.3,0-0.5,0-0.7,0  c-0.6,0-1-0.1-1.3-0.4C88.1,105.7,87.9,105.3,87.9,104.7z"></path>	<path class="st0" d="M101.4,99c-0.2-0.7-0.6-1.2-1.1-1.6c-0.5-0.4-1.2-0.6-2-0.6c-1.2,0-2.2,0.4-2.9,1.1c-0.7,0.7-1.1,1.7-1.1,2.9  c0,1.2,0.3,2.2,1.1,2.9c0.7,0.7,1.6,1.1,2.8,1.1c0.9,0,1.6-0.2,2.2-0.7c0.6-0.5,1-1.1,1.1-1.9h2c-0.2,1.4-0.8,2.5-1.8,3.3  c-1,0.8-2.2,1.2-3.6,1.2c-1.7,0-3.1-0.6-4.2-1.6c-1.1-1.1-1.6-2.5-1.6-4.3c0-1.7,0.5-3.2,1.6-4.2c1.1-1.1,2.5-1.6,4.2-1.6  c1.4,0,2.6,0.4,3.5,1.1c1,0.7,1.5,1.7,1.8,2.9H101.4z"></path>	<path class="st0" d="M108.9,103.7c0,0.5,0.1,0.8,0.3,1c0.2,0.2,0.5,0.3,1,0.3c0.2,0,0.4,0,0.6,0c0.2,0,0.5-0.1,0.7-0.2v1.8  c-0.5,0.1-0.8,0.1-1.1,0.2c-0.3,0-0.5,0-0.7,0c-0.9,0-1.6-0.2-2.1-0.6c-0.5-0.4-0.7-1.1-0.7-1.9v-7.1h-1.9v-1.7h1.9v-2.8h2v2.8h2.6  v1.7h-2.6V103.7z"></path>	<path class="st0" d="M113.4,106.4v-11h1.9v11H113.4z M115.4,94h-1.9v-2.4h1.9V94z"></path>	<path class="st0" d="M118.3,106.4v-11h1.9v1.9c0.6-0.7,1.2-1.3,2-1.6c0.7-0.4,1.5-0.5,2.4-0.5c0.7,0,1.3,0.1,1.9,0.3  c0.5,0.2,1,0.5,1.3,0.9c0.3,0.4,0.5,0.8,0.6,1.3c0.1,0.5,0.2,1.3,0.2,2.4v6.3h-1.9V100c0-1.2-0.2-2-0.6-2.5c-0.4-0.5-1-0.7-2-0.7  c-1.2,0-2.1,0.4-2.9,1.1c-0.7,0.7-1.1,1.7-1.1,2.9v5.6H118.3z"></path>	<path class="st0" d="M142.6,105c0,1.9-0.5,3.2-1.4,4.1c-0.9,0.8-2.5,1.3-4.5,1.3c-1.5,0-2.8-0.3-3.6-0.9c-0.9-0.6-1.4-1.5-1.5-2.6  h2.2c0.1,0.6,0.4,1,0.9,1.3c0.5,0.3,1.2,0.4,2.1,0.4c1.4,0,2.5-0.3,3.1-0.8c0.6-0.5,0.9-1.4,0.9-2.6v-0.4c-0.5,0.7-1.2,1.1-1.8,1.4  c-0.7,0.3-1.4,0.5-2.3,0.5c-1.7,0-3.1-0.5-4.2-1.6c-1.1-1.1-1.6-2.5-1.6-4.2c0-1.7,0.5-3.1,1.6-4.2c1.1-1.1,2.4-1.6,4.1-1.6  c0.9,0,1.8,0.2,2.4,0.5c0.7,0.3,1.3,0.9,1.7,1.5v-1.8h2V105z M132.8,100.9c0,1.3,0.3,2.2,1.1,3c0.7,0.7,1.7,1.1,2.9,1.1  s2.2-0.4,2.9-1.1c0.7-0.7,1.1-1.7,1.1-3c0-1.2-0.4-2.2-1.1-2.9c-0.7-0.7-1.7-1.1-2.9-1.1c-1.2,0-2.2,0.4-2.9,1.1  C133.2,98.7,132.8,99.7,132.8,100.9z"></path>	<path class="st0" d="M166.7,100.7c-0.2,1.9-1,3.3-2.3,4.5c-1.3,1.1-3,1.7-5,1.7c-2.4,0-4.3-0.7-5.8-2.1c-1.4-1.4-2.1-3.3-2.1-5.7  s0.7-4.3,2.1-5.7c1.4-1.4,3.4-2.1,5.8-2.1c2,0,3.6,0.5,4.9,1.6c1.3,1.1,2,2.4,2.2,4.2h-2.1c-0.2-1.2-0.8-2.1-1.6-2.8  c-0.9-0.7-2-1-3.4-1c-1.8,0-3.2,0.5-4.2,1.6c-1,1-1.5,2.5-1.5,4.3c0,1.8,0.5,3.3,1.5,4.3c1,1,2.4,1.6,4.3,1.6  c1.4,0,2.6-0.4,3.5-1.1c0.9-0.8,1.5-1.8,1.7-3H166.7z"></path>	<path class="st0" d="M168.1,100.9c0-1.8,0.5-3.2,1.6-4.3c1.1-1.1,2.5-1.6,4.4-1.6c1.8,0,3.3,0.5,4.4,1.6c1.1,1.1,1.6,2.5,1.6,4.3  c0,1.8-0.5,3.2-1.6,4.3c-1.1,1.1-2.5,1.6-4.4,1.6c-1.8,0-3.3-0.5-4.4-1.6C168.7,104.1,168.1,102.7,168.1,100.9z M170.2,100.9  c0,1.2,0.4,2.2,1.1,3c0.7,0.7,1.7,1.1,2.9,1.1c1.2,0,2.2-0.4,2.9-1.1c0.7-0.7,1.1-1.7,1.1-3c0-1.2-0.4-2.2-1.1-2.9  c-0.7-0.7-1.7-1.1-2.9-1.1c-1.2,0-2.2,0.4-2.9,1.1C170.5,98.7,170.2,99.7,170.2,100.9z"></path>	<path class="st0" d="M184.1,97.3c0.6-0.7,1.2-1.3,2-1.6c0.7-0.4,1.5-0.5,2.4-0.5c1,0,1.8,0.2,2.5,0.6c0.7,0.4,1.1,1,1.3,1.7  c0.6-0.8,1.3-1.4,2-1.8c0.7-0.4,1.6-0.6,2.5-0.6c0.7,0,1.3,0.1,1.9,0.3c0.5,0.2,1,0.5,1.3,0.9c0.3,0.4,0.5,0.8,0.6,1.3  c0.1,0.5,0.2,1.3,0.2,2.4v6.3h-1.9V100c0-1.2-0.2-2-0.6-2.5c-0.4-0.5-1-0.7-2-0.7c-1.2,0-2.1,0.4-2.9,1.1c-0.7,0.7-1.1,1.7-1.1,2.9  v5.6h-1.9V100c0-1.2-0.2-2-0.6-2.5c-0.4-0.5-1-0.7-2-0.7c-1.2,0-2.1,0.4-2.9,1.1c-0.7,0.7-1.1,1.7-1.1,2.9v5.6h-1.9v-11h1.9V97.3z"></path>	<path class="st0" d="M203.8,110.3V95.4h1.9V97c0.5-0.6,1.1-1.1,1.8-1.4c0.7-0.3,1.5-0.5,2.3-0.5c1.7,0,3.1,0.5,4.1,1.6  c1.1,1.1,1.6,2.5,1.6,4.2c0,1.7-0.5,3.1-1.6,4.2c-1.1,1.1-2.4,1.6-4.1,1.6c-0.9,0-1.6-0.2-2.3-0.5c-0.7-0.3-1.3-0.8-1.8-1.4v5.5  H203.8z M205.7,100.9c0,1.2,0.3,2.2,1.1,2.9c0.7,0.7,1.7,1.1,2.9,1.1c1.2,0,2.2-0.3,2.9-1c0.7-0.7,1.1-1.7,1.1-2.9  c0-1.2-0.3-2.2-1.1-2.9c-0.7-0.7-1.6-1.1-2.9-1.1c-1.2,0-2.2,0.4-2.9,1.1C206.1,98.7,205.7,99.7,205.7,100.9z"></path>	<path class="st0" d="M225.9,100.8c-0.3,0.2-0.7,0.3-1.2,0.4c-0.5,0.1-1.2,0.2-2.1,0.3c-1.4,0.2-2.3,0.4-2.7,0.6  c-0.4,0.2-0.6,0.6-0.6,1.2c0,0.5,0.2,0.9,0.6,1.3c0.4,0.3,1,0.5,1.7,0.5c1.2,0,2.2-0.2,2.9-0.8c0.8-0.5,1.2-1.1,1.2-1.8V100.8z   M225.9,104.7c-0.5,0.6-1.1,1.1-1.9,1.5c-0.8,0.3-1.6,0.5-2.6,0.5c-1.3,0-2.3-0.3-3-0.9c-0.7-0.6-1.1-1.4-1.1-2.4  c0-0.6,0.1-1.1,0.4-1.5c0.3-0.4,0.6-0.8,1.2-1.2c0.3-0.2,0.6-0.3,1.1-0.4c0.5-0.1,1.3-0.2,2.3-0.3c0.2,0,0.5-0.1,0.8-0.1  c1.8-0.2,2.7-0.7,2.7-1.4c0-0.6-0.2-1-0.7-1.3c-0.4-0.3-1.1-0.4-2.1-0.4c-1.1,0-1.9,0.2-2.4,0.5c-0.5,0.3-0.8,0.9-0.8,1.7l-2,0  c0.1-1.3,0.5-2.3,1.4-2.9c0.9-0.7,2.1-1,3.8-1c1.8,0,3,0.3,3.8,0.8c0.7,0.6,1.1,1.5,1.1,2.8v4.4c0,0.6,0.1,1,0.2,1.3  c0.1,0.2,0.4,0.3,0.7,0.3c0.1,0,0.2,0,0.3,0c0.1,0,0.2,0,0.3-0.1v1.6c-0.3,0-0.5,0.1-0.8,0.1c-0.3,0-0.5,0-0.7,0  c-0.6,0-1-0.1-1.3-0.4C226.2,105.7,226,105.3,225.9,104.7z"></path>	<path class="st0" d="M231.1,106.4v-11h1.9v1.9c0.6-0.7,1.2-1.3,2-1.6c0.7-0.4,1.5-0.5,2.4-0.5c0.7,0,1.3,0.1,1.9,0.3  c0.5,0.2,1,0.5,1.3,0.9c0.3,0.4,0.5,0.8,0.6,1.3c0.1,0.5,0.2,1.3,0.2,2.4v6.3h-1.9V100c0-1.2-0.2-2-0.6-2.5c-0.4-0.5-1-0.7-2-0.7  c-1.2,0-2.1,0.4-2.9,1.1c-0.7,0.7-1.1,1.7-1.1,2.9v5.6H231.1z"></path>	<path class="st0" d="M249.7,106.3c-0.4,1-0.8,1.8-1.1,2.3c-0.3,0.5-0.6,0.9-0.9,1.1c-0.3,0.2-0.6,0.4-1,0.5  c-0.4,0.1-0.9,0.2-1.4,0.2c-0.2,0-0.4,0-0.6,0c-0.2,0-0.5,0-0.7-0.1v-1.9c0.3,0,0.5,0.1,0.7,0.1c0.2,0,0.3,0,0.5,0  c0.7,0,1.2-0.2,1.5-0.4c0.3-0.3,0.6-0.8,0.9-1.6l-4.8-11h2.3l3.6,9.3l3.5-9.3h2.3L249.7,106.3z"></path></g><g>	<polygon class="st1" points="20.3,80.1 20.3,20.7 43.6,20.7 43.6,41.3 70.2,41.3 70.2,20.7 93.5,20.7 93.5,80.1 70.2,80.1   70.2,56.1 43.6,56.1 43.6,80.1  "></polygon>	<path class="st1" d="M147.2,20.7c8.4,0,14.3,1.2,17.8,3.5c3.5,2.3,5.2,6.1,5.2,11.4c0,2.9-0.7,5.5-2,7.7c-1.4,2.2-3.4,4-6,5.3  c3.5,1.1,6.1,2.9,7.8,5.4c1.8,2.5,2.6,5.5,2.6,9.2c0,5.6-1.9,9.9-5.6,12.7c-3.7,2.8-9.4,4.2-16.9,4.2H98.8V20.7H147.2z M122.1,34.6  V43h15.7c3.4,0,5.6-0.3,6.6-0.9c1-0.6,1.5-1.7,1.5-3.3c0-1.6-0.5-2.7-1.4-3.3c-0.9-0.6-3.2-0.9-6.7-0.9H122.1z M122.1,65.3h16.5  c3.8,0,6.2-0.4,7.4-1c1.1-0.7,1.7-2,1.7-3.8c0-1.9-0.6-3.2-1.7-3.9c-1.2-0.7-3.6-1.1-7.3-1.1h-16.5V65.3z"></path>	<polygon class="st1" points="174.7,80.1 174.7,20.7 198,20.7 198,41.3 219.4,20.7 250.9,20.7 225.8,42.2 253.4,80.1 224.4,80.1   208.2,56 198,64.2 198,80.1  "></polygon>	<path class="st2" d="M70.3,68.1c0,6.6-6,12-13.3,12c-7.4,0-13.3-5.4-13.3-12c0-3.2,1.4-6.2,3.9-8.5c2.5-2.2,5.9-3.5,9.4-3.5  C64.3,56.2,70.3,61.5,70.3,68.1z"></path></g></svg>